<?xml version="1.0" ?>
<svg baseprofile="tiny" height="120" stroke-linecap="round" stroke-linejoin="round" version="1.2" viewbox="0 0 120 120" width="120" xmlns="http://www.w3.org/2000/svg">
<g id="com_maf_blm">
<path d="M 103.32 101.67 99.3 98.74 95.85 93.54 93.85 88.35 94.25 85.31 97.14 86.73 119 90.03 116.58 93.85 112.87 98.09 108.31 101.23 103.32 101.67 Z" data-anchor-x="106.425" data-anchor-y="93.49000000000001" data-fill-id="977" data-name="Saint-Barthélemy" id="977"></path>
<path d="M 43.92 49.14 21.24 40.41 14.23 39.15 14.23 37.47 11.47 38.02 6.42 39.8 5.15 40.06 1.98 38.25 1 36.3 2.07 34.96 11.99 34.8 17.85 33.36 21.93 30.19 23.5 24.55 26.23 22.53 32.46 20.16 39.33 18.41 43.9 18.33 43.8 25.83 46.07 36.17 46.19 46.55 43.92 49.14 Z" data-anchor-x="23.595" data-anchor-y="33.735" data-fill-id="978" data-name="Saint-Martin" id="978"></path>
</g>
<g><a href="#"><path d="M 103.32 101.67 99.3 98.74 95.85 93.54 93.85 88.35 94.25 85.31 97.14 86.73 119 90.03 116.58 93.85 112.87 98.09 108.31 101.23 103.32 101.67 Z" fill="transparent" stroke="none"></path><text alignment-baseline="central" class="text-com_maf_blm" id="text-com_maf_blm-977" text-anchor="middle" x="106.425" y="93.49000000000001">Saint-Barthélemy</text></a><a href="#"><path d="M 43.92 49.14 21.24 40.41 14.23 39.15 14.23 37.47 11.47 38.02 6.42 39.8 5.15 40.06 1.98 38.25 1 36.3 2.07 34.96 11.99 34.8 17.85 33.36 21.93 30.19 23.5 24.55 26.23 22.53 32.46 20.16 39.33 18.41 43.9 18.33 43.8 25.83 46.07 36.17 46.19 46.55 43.92 49.14 Z" fill="transparent" stroke="none"></path><text alignment-baseline="central" class="text-com_maf_blm" id="text-com_maf_blm-978" text-anchor="middle" x="23.595" y="33.735">Saint-Martin</text></a></g></svg>
